<?xml version="1.0" encoding="iso-8859-1"?>
<!-- Generator: Adobe Illustrator 19.0.0, SVG Export Plug-In . SVG Version: 6.00 Build 0)  -->
<svg version="1.1" id="Layer_1" xmlns="http://www.w3.org/2000/svg" xmlns:xlink="http://www.w3.org/1999/xlink" x="0px" y="0px"
	 viewBox="0 0 512 512" style="enable-background:new 0 0 512 512;" xml:space="preserve">
<path style="fill:#0091EA;" d="M418.133,213.334c-13.67,0-26.633,3.004-38.357,8.286l-27.324-48.58l13.38-23.791
	c0.751-1.331,0.973-2.756,0.973-4.181H384c2.27,0,4.437-0.896,6.033-2.5l8.533-8.533c3.337-3.337,3.337-8.73,0-12.066
	c-3.337-3.337-8.73-3.337-12.066,0l-6.033,6.033h-64.734c-4.719,0-8.533,3.823-8.533,8.533s3.814,8.533,8.533,8.533h32.879
	l-9.6,17.067H166.511l9.993-25.6h36.83c4.719,0,8.533-3.823,8.533-8.533c0-4.71-3.814-8.533-8.533-8.533H164.83l-38.767,99.678
	c-10.061-3.695-20.873-5.811-32.196-5.811C42.112,213.334,0,255.446,0,307.201s42.112,93.867,93.867,93.867
	s93.867-42.112,93.867-93.867c0-34.389-18.645-64.444-46.31-80.785l6.298-16.137l93.312,85.538
	c-1.28,3.575-2.099,7.373-2.099,11.383c0,18.825,15.309,34.133,34.133,34.133c15.863,0,29.107-10.923,32.922-25.6h18.714
	c4.326,47.77,44.553,85.333,93.431,85.333c51.755,0,93.867-42.112,93.867-93.867S469.888,213.334,418.133,213.334z M170.667,307.201
	c0,42.342-34.449,76.8-76.8,76.8s-76.8-34.458-76.8-76.8s34.449-76.8,76.8-76.8c9.148,0,17.877,1.69,26.018,4.634l-16.572,42.607
	l-16.546,24.823c-2.62,3.917-1.562,9.225,2.364,11.836c1.459,0.973,3.106,1.434,4.727,1.434c2.756,0,5.47-1.331,7.108-3.797
	l17.067-25.6l17.092-43.802C156.459,256.189,170.667,280.048,170.667,307.201z M364.902,229.974
	c-22.315,15.428-37.623,40.235-40.201,68.693h-18.714c-2.057-7.919-6.818-14.737-13.329-19.337l50.005-88.892L364.902,229.974z
	 M373.325,244.95l30.217,53.717h-61.705C344.294,276.583,356.173,257.341,373.325,244.95z M159.846,179.201h169.566l-52.992,94.208
	c-1.118-0.111-2.202-0.341-3.354-0.341c-8.567,0-16.307,3.277-22.306,8.508l-96.384-88.354L159.846,179.201z M273.067,324.268
	c-9.412,0-17.067-7.654-17.067-17.067s7.654-17.067,17.067-17.067s17.067,7.654,17.067,17.067S282.479,324.268,273.067,324.268z
	 M418.133,384.001c-39.467,0-72.038-29.926-76.297-68.267h76.297c3.029,0,5.837-1.604,7.364-4.224s1.562-5.854,0.068-8.491
	l-37.419-66.517c9.225-3.925,19.354-6.101,29.986-6.101c42.351,0,76.8,34.458,76.8,76.8S460.484,384.001,418.133,384.001z"/>
<path d="M418.133,204.801c-13.67,0-26.633,3.004-38.357,8.286l-27.324-48.58l13.38-23.791c0.751-1.331,0.973-2.756,0.973-4.181H384
	c2.27,0,4.437-0.896,6.033-2.5l8.533-8.533c3.337-3.337,3.337-8.73,0-12.066c-3.337-3.337-8.73-3.337-12.066,0l-6.033,6.033h-64.734
	c-4.719,0-8.533,3.823-8.533,8.533c0,4.71,3.814,8.533,8.533,8.533h32.879l-9.6,17.067H166.511l9.993-25.6h36.83
	c4.719,0,8.533-3.823,8.533-8.533c0-4.71-3.814-8.533-8.533-8.533H164.83l-38.767,99.678c-10.061-3.695-20.873-5.811-32.196-5.811
	C42.112,204.801,0,246.913,0,298.668s42.112,93.867,93.867,93.867s93.867-42.112,93.867-93.867c0-34.389-18.645-64.444-46.31-80.785
	l6.298-16.137l93.312,85.538c-1.28,3.575-2.099,7.373-2.099,11.383c0,18.825,15.309,34.133,34.133,34.133
	c15.863,0,29.107-10.923,32.922-25.6h18.714c4.326,47.77,44.553,85.333,93.431,85.333c51.755,0,93.867-42.112,93.867-93.867
	S469.888,204.801,418.133,204.801z M170.667,298.668c0,42.342-34.449,76.8-76.8,76.8s-76.8-34.458-76.8-76.8s34.449-76.8,76.8-76.8
	c9.148,0,17.877,1.69,26.018,4.634l-16.572,42.607l-16.546,24.823c-2.62,3.917-1.562,9.225,2.364,11.836
	c1.459,0.973,3.106,1.434,4.727,1.434c2.756,0,5.47-1.331,7.108-3.797l17.067-25.6l17.092-43.802
	C156.459,247.655,170.667,271.515,170.667,298.668z M364.902,221.441c-22.315,15.428-37.623,40.235-40.201,68.693h-18.714
	c-2.057-7.919-6.818-14.737-13.329-19.337l50.005-88.892L364.902,221.441z M373.325,236.417l30.217,53.717h-61.705
	C344.294,268.05,356.173,248.807,373.325,236.417z M159.846,170.668h169.566l-52.992,94.208c-1.118-0.111-2.202-0.341-3.354-0.341
	c-8.567,0-16.307,3.277-22.306,8.508l-96.384-88.354L159.846,170.668z M273.067,315.734c-9.412,0-17.067-7.654-17.067-17.067
	c0-9.412,7.654-17.067,17.067-17.067s17.067,7.654,17.067,17.067C290.133,308.08,282.479,315.734,273.067,315.734z M418.133,375.468
	c-39.467,0-72.038-29.926-76.297-68.267h76.297c3.029,0,5.837-1.604,7.364-4.224s1.562-5.854,0.068-8.491l-37.419-66.517
	c9.225-3.925,19.354-6.101,29.986-6.101c42.351,0,76.8,34.458,76.8,76.8S460.484,375.468,418.133,375.468z"/>
<path style="fill:#FFC107;" d="M290.133,298.668c0,9.472-7.595,17.067-17.067,17.067c-9.387,0-17.067-7.595-17.067-17.067
	c0-9.387,7.68-17.067,17.067-17.067C282.539,281.601,290.133,289.281,290.133,298.668z"/>
<path style="fill:#F9A825;" d="M273.067,304.274c-7.373,0-13.636-4.719-16-11.315c-0.649,1.792-1.067,3.695-1.067,5.709
	c0,9.472,7.68,17.067,17.067,17.067c9.472,0,17.067-7.595,17.067-17.067c0-2.014-0.41-3.917-1.05-5.717
	C286.729,299.555,280.508,304.274,273.067,304.274z"/>
<g>
</g>
<g>
</g>
<g>
</g>
<g>
</g>
<g>
</g>
<g>
</g>
<g>
</g>
<g>
</g>
<g>
</g>
<g>
</g>
<g>
</g>
<g>
</g>
<g>
</g>
<g>
</g>
<g>
</g>
</svg>
